<svg width="1104" height="1104" viewBox="0 0 1104 1104" fill="none" xmlns="http://www.w3.org/2000/svg">
<rect width="1104" height="1104" fill="#F5F5F5"/>
<path d="M359 685.934V518.934H454V548.934H392.5V581.434H438V610.434H392.5V656.434H454V685.934H359Z" fill="#FF162C"/>
<path d="M523.5 600.934L480 518.934H520L545.5 571.934L570.5 518.934H612L563.5 600.934L612 685.934H570.5L541 628.934L512.5 685.934H473.5L523.5 600.934Z" fill="#FF162C"/>
<path fill-rule="evenodd" clip-rule="evenodd" d="M639.5 685.934V518.934C674.667 510.434 745 510.134 745 576.934C745 643.734 696.667 647.767 672.5 641.434V685.934H639.5ZM713.5 576.934C714.3 546.934 686.5 543.434 672.5 545.434V610.434C685.833 611.767 712.7 606.934 713.5 576.934Z" fill="#FF162C"/>
<path d="M473 374.5C473 364.571 475.159 349.934 480.772 338.594C486.085 327.861 492.626 323 502 323H591.422C595.868 323.315 604.05 325.691 611.074 332.589C617.772 339.167 625 351.423 625 374.5H666C666 341.977 655.395 318.65 639.801 303.336C624.737 288.543 606.442 282.652 592.957 282.022L592.479 282H502C471.774 282 453.565 301.139 444.028 320.406C434.791 339.066 432 360.429 432 374.5H473Z" fill="black"/>
<path d="M473 374.5C473 364.571 475.159 349.934 480.772 338.594C486.085 327.861 492.626 323 502 323H591.422C595.868 323.315 604.05 325.691 611.074 332.589C617.772 339.167 625 351.423 625 374.5H666C666 341.977 655.395 318.65 639.801 303.336C624.737 288.543 606.442 282.652 592.957 282.022L592.479 282H502C471.774 282 453.565 301.139 444.028 320.406C434.791 339.066 432 360.429 432 374.5H473Z" fill="black"/>
<path fill-rule="evenodd" clip-rule="evenodd" d="M432 374.5H473H625H666H777.5C799.868 374.5 818 392.632 818 415V781C818 803.368 799.868 821.5 777.5 821.5H326.5C304.132 821.5 286 803.368 286 781V415C286 392.632 304.132 374.5 326.5 374.5H432ZM327 415.5V780.5H777V415.5H327Z" fill="black"/>
<path fill-rule="evenodd" clip-rule="evenodd" d="M327 415.5H777V780.5H327V415.5ZM359 685.934V518.934H454V548.934H392.5V581.434H438V610.434H392.5V656.434H454V685.934H359ZM523.5 600.934L480 518.934H520L545.5 571.934L570.5 518.934H612L563.5 600.934L612 685.934H570.5L541 628.934L512.5 685.934H473.5L523.5 600.934ZM639.5 518.934V685.934H672.5V641.434C696.667 647.767 745 643.734 745 576.934C745 510.134 674.667 510.434 639.5 518.934Z" fill="white"/>
</svg>
