<svg width="532" height="540" viewBox="0 0 532 540" fill="none" xmlns="http://www.w3.org/2000/svg">
<path d="M73 403.934V236.934H168V266.934H106.5V299.434H152V328.434H106.5V374.434H168V403.934H73Z" fill="#FF162C"/>
<path d="M237.5 318.934L194 236.934H234L259.5 289.934L284.5 236.934H326L277.5 318.934L326 403.934H284.5L255 346.934L226.5 403.934H187.5L237.5 318.934Z" fill="#FF162C"/>
<path fill-rule="evenodd" clip-rule="evenodd" d="M353.5 403.934V236.934C388.667 228.434 459 228.134 459 294.934C459 361.734 410.667 365.767 386.5 359.434V403.934H353.5ZM427.5 294.934C428.3 264.934 400.5 261.434 386.5 263.434V328.434C399.833 329.767 426.7 324.934 427.5 294.934Z" fill="#FF162C"/>
<path d="M187 92.5C187 82.5712 189.159 67.9341 194.772 56.5943C200.085 45.861 206.626 41 216 41H305.422C309.868 41.3153 318.05 43.6914 325.074 50.5888C331.772 57.167 339 69.4233 339 92.5H380C380 59.9767 369.395 36.6496 353.801 21.3362C338.737 6.54257 320.442 0.652498 306.957 0.0223446L306.479 0H216C185.774 0 167.565 19.139 158.028 38.4057C148.791 57.0659 146 78.4288 146 92.5H187Z" fill="black"/>
<path d="M187 92.5C187 82.5712 189.159 67.9341 194.772 56.5943C200.085 45.861 206.626 41 216 41H305.422C309.868 41.3153 318.05 43.6914 325.074 50.5888C331.772 57.167 339 69.4233 339 92.5H380C380 59.9767 369.395 36.6496 353.801 21.3362C338.737 6.54257 320.442 0.652498 306.957 0.0223446L306.479 0H216C185.774 0 167.565 19.139 158.028 38.4057C148.791 57.0659 146 78.4288 146 92.5H187Z" fill="black"/>
<path fill-rule="evenodd" clip-rule="evenodd" d="M146 92.5H187H339H380H491.5C513.868 92.5 532 110.632 532 133V499C532 521.368 513.868 539.5 491.5 539.5H40.5C18.1325 539.5 0 521.368 0 499V133C0 110.632 18.1325 92.5 40.5 92.5H146ZM41 133.5V498.5H491V133.5H41Z" fill="black"/>
<path fill-rule="evenodd" clip-rule="evenodd" d="M41 133.5H491V498.5H41V133.5ZM73 403.934V236.934H168V266.934H106.5V299.434H152V328.434H106.5V374.434H168V403.934H73ZM237.5 318.934L194 236.934H234L259.5 289.934L284.5 236.934H326L277.5 318.934L326 403.934H284.5L255 346.934L226.5 403.934H187.5L237.5 318.934ZM353.5 236.934V403.934H386.5V359.434C410.667 365.767 459 361.734 459 294.934C459 228.134 388.667 228.434 353.5 236.934Z" fill="white"/>
</svg>
